<svg id="Capa_1" enable-background="new 0 0 512.001 512.001" height="512" viewBox="0 0 512.001 512.001" width="512" xmlns="http://www.w3.org/2000/svg"><g><path d="m383.878 345.382-13.693-59.355c-.021-.087-.041-.173-.063-.26-3.004-12.039-7.806-23.231-14.048-33.353 21.546-17.273 43.419-45.515 61.648-80.017 36.463-69.019 22.693-156.153 22.09-159.829-.699-4.254-3.195-8.002-6.85-10.287s-8.115-2.886-12.249-1.651c-3.102.928-76.403 23.526-113.442 93.634-18.73 35.452-30.908 72.754-34.179 103.619-5.595-.815-11.298-1.26-17.09-1.26s-11.494.445-17.089 1.26c-3.271-30.866-15.449-68.167-34.18-103.619-37.04-70.108-110.342-92.706-113.443-93.634-4.133-1.237-8.594-.634-12.249 1.651s-6.151 6.033-6.85 10.287c-.604 3.676-14.373 90.811 22.09 159.829 18.229 34.503 40.102 62.745 61.647 80.017-6.242 10.122-11.044 21.314-14.048 33.353-.021.087-.042.173-.063.26l-13.693 59.355c-23.928 15.397-38.524 41.851-38.524 70.619 0 46.313 37.679 83.99 83.991 83.99 10.502 0 20.917-1.982 30.642-5.791 13.563 11.419 30.798 17.801 48.746 17.801 19.013 0 36.923-6.989 50.73-19.509 10.846 4.932 22.641 7.499 34.7 7.499 46.313 0 83.991-37.678 83.991-83.99.001-28.768-14.595-55.222-38.522-70.619zm-50.084-237.105c21.001-39.751 57.051-61.754 78.346-71.882 1.797 27.454 1.44 79.616-20.944 121.988-16.26 30.776-35.82 56.255-53.989 70.738-1.393-1.329-2.814-2.629-4.27-3.888l18.73-29.986c4.39-7.025 2.251-16.279-4.775-20.668-7.025-4.39-16.28-2.251-20.668 4.775l-18.303 29.303c-1.791-.88-3.613-1.701-5.451-2.49 1.866-27.575 13.406-63.971 31.324-97.89zm-212.989 50.107c-22.321-42.251-22.688-94.553-20.914-122.038 21.258 10.056 57.199 31.964 78.315 71.932 17.92 33.919 29.459 70.314 31.325 97.89-1.838.79-3.661 1.611-5.451 2.491l-18.303-29.303c-4.387-7.026-13.641-9.166-20.668-4.775-7.026 4.389-9.165 13.643-4.775 20.668l18.73 29.986c-1.456 1.259-2.876 2.558-4.27 3.888-18.169-14.483-37.728-39.962-53.989-70.739zm217.605 311.607c-10.51 0-20.706-3.033-29.485-8.772-6.509-4.254-15.191-2.829-19.999 3.284-8.743 11.12-21.845 17.498-35.946 17.498-13.179 0-25.726-5.707-34.424-15.658-2.931-3.353-7.084-5.13-11.301-5.13-2.5 0-5.023.625-7.326 1.916-8.012 4.489-17.119 6.862-26.337 6.862-29.771 0-53.991-24.22-53.991-53.99 0-20.023 11.007-38.307 28.724-47.715 3.839-2.038 6.604-5.641 7.582-9.876l15.112-65.506c9.802-39.031 44.729-66.281 84.982-66.281s75.181 27.25 84.982 66.281l15.112 65.506c.978 4.235 3.743 7.838 7.582 9.876 17.717 9.408 28.724 27.691 28.724 47.715 0 29.771-24.221 53.99-53.991 53.99z"/><path d="m320.701 341.381c-1.164-6.156-6.343-10.968-12.495-11.899-6.192-.937-12.491 2.245-15.425 7.769-2.946 5.549-2.104 12.456 2.103 17.131 4.184 4.649 11.093 6.186 16.857 3.779 6.488-2.709 10.4-9.849 8.96-16.78z"/><path d="m220.711 341.381c-1.288-6.151-6.27-10.956-12.505-11.899-6.174-.934-12.518 2.24-15.436 7.769-2.931 5.555-2.092 12.457 2.114 17.131 4.184 4.649 11.094 6.186 16.857 3.779 6.578-2.747 10.275-9.811 8.97-16.78z"/><path d="m266.169 391.772h-20.336c-8.284 0-15 6.716-15 15s6.716 15 15 15h20.336c8.284 0 15-6.716 15-15s-6.716-15-15-15z"/></g></svg>