<svg id="Layer_35" enable-background="new 0 0 64 64" height="512" viewBox="0 0 64 64" width="512" xmlns="http://www.w3.org/2000/svg"><path d="m24 18c.551 0 1 .448 1 1h2c0-1.654-1.346-3-3-3s-3 1.346-3 3 1.346 3 3 3c.551 0 1 .448 1 1s-.449 1-1 1-1-.448-1-1h-2c0 1.654 1.346 3 3 3s3-1.346 3-3-1.346-3-3-3c-.551 0-1-.448-1-1s.449-1 1-1z"/><path d="m40 24c-.551 0-1-.448-1-1h-2c0 1.654 1.346 3 3 3s3-1.346 3-3-1.346-3-3-3c-.551 0-1-.448-1-1s.449-1 1-1 1 .448 1 1h2c0-1.654-1.346-3-3-3s-3 1.346-3 3 1.346 3 3 3c.551 0 1 .448 1 1s-.449 1-1 1z"/><path d="m35 23v-4c0-1.654-1.346-3-3-3s-3 1.346-3 3v4c0 1.654 1.346 3 3 3s3-1.346 3-3zm-4 0v-4c0-.552.449-1 1-1s1 .448 1 1v4c0 .552-.449 1-1 1s-1-.448-1-1z"/><path d="m47 21c0-8.271-6.729-15-15-15s-15 6.729-15 15 6.729 15 15 15 15-6.729 15-15zm-28 0c0-7.168 5.832-13 13-13s13 5.832 13 13-5.832 13-13 13-13-5.832-13-13z"/><path d="m5 56h2v2h-2z"/><path d="m5 52h2v2h-2z"/><path d="m5 48h2v2h-2z"/><path d="m57 44h2v2h-2z"/><path d="m57 48h2v2h-2z"/><path d="m57 52h2v2h-2z"/><path d="m49.029 36.962-5.012 1.253 3.528-4.358c2.873-3.548 4.455-8.018 4.455-12.584v-.273c0-11.028-8.972-20-20-20s-20 8.972-20 20v.273c0 4.565 1.582 9.035 4.455 12.584l3.528 4.357-5.009-1.253-13.974 4.301v22.092l14.036-4.318 16.964 3.991 16.966-3.992 14.034 4.319v-22.092zm-35.029-15.689v-.273c0-9.925 8.075-18 18-18s18 8.075 18 18v.273c0 4.109-1.424 8.132-4.01 11.326l-11.509 14.217c-.609.752-1.513 1.184-2.481 1.184s-1.872-.432-2.481-1.184l-11.509-14.216c-2.586-3.195-4.01-7.217-4.01-11.327zm13.964 26.801c.991 1.224 2.462 1.926 4.036 1.926s3.045-.702 4.036-1.926l1.995-2.464c3.907.828 5.969 2.301 5.969 3.39 0 1.67-4.565 4-12 4s-12-2.33-12-4c0-1.089 2.062-2.562 5.969-3.39zm-24.964-5.336 11-3.384v17.908l-11 3.384zm13 14.47v-17.927l6.075 1.518 2.489 3.075c-4.14 1.055-6.564 2.918-6.564 5.126 0 3.897 7.213 6 14 6s14-2.103 14-6c0-2.208-2.424-4.071-6.564-5.126l2.489-3.074 6.075-1.519v17.927l-16 3.764zm45 3.438-11-3.384v-17.908l11 3.384z"/></svg>