<svg id="Layer_35" enable-background="new 0 0 64 64" height="512" viewBox="0 0 64 64" width="512" xmlns="http://www.w3.org/2000/svg"><path d="m5 56h2v2h-2z"/><path d="m5 52h2v2h-2z"/><path d="m5 48h2v2h-2z"/><path d="m57 44h2v2h-2z"/><path d="m57 48h2v2h-2z"/><path d="m57 52h2v2h-2z"/><path d="m49.029 36.962-8.068 2.018.485 1.939 6.554-1.638v17.927l-16 3.764-16-3.765v-17.926l6.551 1.637.485-1.939-8.063-2.017-13.973 4.3v22.092l14.036-4.318 16.964 3.991 16.966-3.992 14.034 4.319v-22.092zm-46.029 5.776 11-3.384v17.908l-11 3.384zm58 17.908-11-3.384v-17.908l11 3.384z"/><path d="m32 55c-6.787 0-14-2.103-14-6 0-2.481 3.056-4.53 8.175-5.482l.365 1.967c-4.293.797-6.54 2.372-6.54 3.515 0 1.67 4.565 4 12 4s12-2.33 12-4c0-1.143-2.247-2.718-6.541-3.516l.365-1.967c5.12.953 8.176 3.002 8.176 5.483 0 3.897-7.213 6-14 6z"/><path d="m32 1c-11.028 0-20 8.972-20 20v.273c0 4.565 1.582 9.035 4.455 12.584l11.509 14.217c.991 1.224 2.462 1.926 4.036 1.926s3.045-.702 4.036-1.926l11.509-14.217c2.873-3.548 4.455-8.018 4.455-12.584v-.273c0-11.028-8.972-20-20-20zm0 34c-7.732 0-14-6.268-14-14s6.268-14 14-14 14 6.268 14 14-6.268 14-14 14z" fill="#f0bc5e"/><path d="m32 36c-8.271 0-15-6.729-15-15s6.729-15 15-15 15 6.729 15 15-6.729 15-15 15zm0-28c-7.168 0-13 5.832-13 13s5.832 13 13 13 13-5.832 13-13-5.832-13-13-13z"/><path d="m24 26c-1.654 0-3-1.346-3-3h2c0 .552.449 1 1 1s1-.448 1-1-.449-1-1-1c-1.654 0-3-1.346-3-3s1.346-3 3-3 3 1.346 3 3h-2c0-.552-.449-1-1-1s-1 .448-1 1 .449 1 1 1c1.654 0 3 1.346 3 3s-1.346 3-3 3z"/><path d="m40 26c-1.654 0-3-1.346-3-3h2c0 .552.449 1 1 1s1-.448 1-1-.449-1-1-1c-1.654 0-3-1.346-3-3s1.346-3 3-3 3 1.346 3 3h-2c0-.552-.449-1-1-1s-1 .448-1 1 .449 1 1 1c1.654 0 3 1.346 3 3s-1.346 3-3 3z"/><path d="m32 26c-1.654 0-3-1.346-3-3v-4c0-1.654 1.346-3 3-3s3 1.346 3 3v4c0 1.654-1.346 3-3 3zm0-8c-.551 0-1 .448-1 1v4c0 .552.449 1 1 1s1-.448 1-1v-4c0-.552-.449-1-1-1z"/></svg>