<svg id="Capa_1" enable-background="new 0 0 448 448" height="512" viewBox="0 0 448 448" width="512" xmlns="http://www.w3.org/2000/svg"><ellipse cx="268" cy="144" rx="20" ry="32"/><path d="m267.094 231.063c-15.867-23.8-48.024-30.231-71.824-14.364-5.689 3.793-10.571 8.675-14.364 14.364l-10.145 15.218c-12.253 18.341-18.783 39.907-18.761 61.964.001 15.329 12.429 27.755 27.758 27.754 9.748-.001 18.782-5.116 23.798-13.475l1.579-2.631c6.251-10.419 19.765-13.797 30.184-7.546 3.097 1.858 5.688 4.45 7.546 7.546l1.579 2.632c7.887 13.144 24.937 17.406 38.081 9.519 8.359-5.016 13.474-14.05 13.475-23.799.022-22.057-6.508-43.624-18.761-61.965z"/><ellipse cx="116" cy="208" rx="20" ry="32"/><ellipse cx="180" cy="144" rx="20" ry="32"/><path d="m344 112c-4.418 0-8-3.582-8-8v-104h-224v104c0 4.418-3.582 8-8 8h-104v224h104c4.418 0 8 3.582 8 8v104h224v-104c0-4.418 3.582-8 8-8h104v-224zm-76-16c20.187 0 36 21.084 36 48s-15.813 48-36 48-36-21.084-36-48 15.813-48 36-48zm-88 0c20.187 0 36 21.084 36 48s-15.813 48-36 48-36-21.084-36-48 15.813-48 36-48zm-100 112c0-26.916 15.813-48 36-48s36 21.084 36 48-15.813 48-36 48-36-21.084-36-48zm188.244 144c-15.358-.044-29.581-8.096-37.52-21.243l-1.579-2.633c-1.705-2.841-5.39-3.763-8.232-2.058-.845.507-1.551 1.214-2.058 2.058l-1.579 2.632c-12.434 20.722-39.311 27.441-60.033 15.007-13.178-7.907-21.242-22.149-21.243-37.518-.024-25.216 7.441-49.872 21.448-70.84l10.146-15.217c20.768-31.152 62.857-39.571 94.009-18.803 7.448 4.965 13.838 11.355 18.803 18.803l10.146 15.212c14.008 20.969 21.473 45.627 21.448 70.845-.025 24.155-19.601 43.731-43.756 43.755zm63.756-96c-20.187 0-36-21.084-36-48s15.813-48 36-48 36 21.084 36 48-15.813 48-36 48z"/><ellipse cx="332" cy="208" rx="20" ry="32"/></svg>